<svg width="24" height="25" viewBox="0 0 24 25" fill="none" xmlns="http://www.w3.org/2000/svg">
<path fill-rule="evenodd" clip-rule="evenodd" d="M13.9838 2.87468C14.0711 3.044 14.0928 3.26083 14.1361 3.69451C14.2182 4.51537 14.2593 4.9258 14.4311 5.15099C14.649 5.43665 15.0034 5.58345 15.3595 5.53555C15.6402 5.49779 15.9594 5.23659 16.5979 4.7142C16.9352 4.43822 17.1038 4.30023 17.2853 4.24225C17.5158 4.16861 17.7652 4.18105 17.9872 4.27726C18.162 4.35301 18.3161 4.50709 18.6243 4.81527L19.5178 5.70874C19.8259 6.01692 19.98 6.17101 20.0558 6.34582C20.152 6.56784 20.1644 6.81722 20.0908 7.04771C20.0328 7.22919 19.8948 7.39785 19.6188 7.73517C19.0964 8.37367 18.8352 8.69291 18.7975 8.97363C18.7496 9.32969 18.8964 9.68408 19.182 9.90199C19.4072 10.0738 19.8176 10.1148 20.6385 10.1969C21.0722 10.2403 21.2891 10.262 21.4584 10.3493C21.6734 10.4602 21.841 10.6454 21.9299 10.8704C22 11.0475 22 11.2655 22 11.7013V12.9649C22 13.4007 22 13.6186 21.93 13.7957C21.841 14.0208 21.6734 14.2059 21.4583 14.3169C21.289 14.4042 21.0722 14.4258 20.6386 14.4692C19.818 14.5513 19.4077 14.5923 19.1825 14.764C18.8967 14.9819 18.7499 15.3365 18.7979 15.6927C18.8357 15.9733 19.0968 16.2924 19.619 16.9307C19.8949 17.2679 20.0328 17.4364 20.0908 17.6179C20.1645 17.8484 20.152 18.0979 20.0558 18.32C19.98 18.4947 19.826 18.6488 19.5179 18.9568L18.6243 19.8504C18.3162 20.1586 18.1621 20.3127 17.9873 20.3884C17.7652 20.4846 17.5159 20.4971 17.2854 20.4234C17.1039 20.3655 16.9352 20.2275 16.5979 19.9515C15.9594 19.4291 15.6402 19.1679 15.3595 19.1301C15.0034 19.0822 14.649 19.229 14.4311 19.5147C14.2593 19.7399 14.2183 20.1504 14.1362 20.9714C14.0928 21.4053 14.0711 21.6222 13.9837 21.7916C13.8728 22.0065 13.6877 22.174 13.4628 22.263C13.2856 22.3331 13.0676 22.3331 12.6316 22.3331H11.3682C10.9324 22.3331 10.7145 22.3331 10.5373 22.263C10.3123 22.174 10.1272 22.0065 10.0162 21.7915C9.92891 21.6221 9.90722 21.4053 9.86385 20.9716C9.78176 20.1507 9.74072 19.7403 9.56892 19.5151C9.35101 19.2294 8.99663 19.0826 8.64057 19.1305C8.35985 19.1683 8.04059 19.4295 7.40208 19.9519C7.06475 20.2279 6.89607 20.3659 6.71458 20.4239C6.4841 20.4975 6.23474 20.4851 6.01272 20.3889C5.8379 20.3132 5.6838 20.1591 5.37561 19.8509L4.48217 18.9574C4.17398 18.6492 4.01988 18.4951 3.94414 18.3203C3.84794 18.0983 3.8355 17.8489 3.90913 17.6184C3.96711 17.437 4.10511 17.2683 4.3811 16.931C4.90351 16.2925 5.16471 15.9732 5.20247 15.6925C5.25037 15.3364 5.10357 14.982 4.81792 14.7641C4.59273 14.5923 4.1823 14.5513 3.36143 14.4692C2.92776 14.4258 2.71093 14.4042 2.54161 14.3168C2.32656 14.2059 2.15902 14.0208 2.07005 13.7958C2 13.6186 2 13.4007 2 12.9648V11.7014C2 11.2655 2 11.0475 2.07008 10.8703C2.15905 10.6453 2.32654 10.4603 2.54152 10.3493C2.71088 10.262 2.92777 10.2403 3.36155 10.1969C4.18263 10.1148 4.59319 10.0737 4.81842 9.90188C5.10395 9.68399 5.2507 9.32971 5.20287 8.97373C5.16514 8.69294 4.90385 8.37359 4.38128 7.73489C4.10516 7.39742 3.96711 7.22868 3.90914 7.04712C3.83557 6.81671 3.848 6.56745 3.94413 6.3455C4.01988 6.17061 4.17403 6.01646 4.48233 5.70816L5.37565 4.81484C5.68384 4.50664 5.83795 4.35254 6.01277 4.2768C6.23478 4.1806 6.48414 4.16816 6.71463 4.24179C6.89612 4.29977 7.06481 4.43779 7.4022 4.71383C8.04061 5.23617 8.35982 5.49734 8.64044 5.53514C8.99661 5.5831 9.35113 5.43626 9.56907 5.15049C9.74077 4.92533 9.78181 4.51501 9.86387 3.69437C9.90722 3.26083 9.9289 3.04405 10.0162 2.87477C10.1271 2.65964 10.3123 2.49205 10.5374 2.40308C10.7145 2.33307 10.9324 2.33307 11.3681 2.33307H12.6318C13.0676 2.33307 13.2855 2.33307 13.4627 2.40312C13.6877 2.49209 13.8728 2.65963 13.9838 2.87468ZM12 16.3331C14.2091 16.3331 16 14.5422 16 12.3331C16 10.1239 14.2091 8.33307 12 8.33307C9.79086 8.33307 8 10.1239 8 12.3331C8 14.5422 9.79086 16.3331 12 16.3331Z" fill="white" fill-opacity="0.25"/>
<path d="M20.6385 14.4692L20.5788 13.8722L20.5593 13.8741L20.5399 13.8774L20.6385 14.4692ZM20.6385 14.4692L20.6982 15.0662L20.7178 15.0643L20.7371 15.061L20.6385 14.4692ZM16.5978 19.9515L16.9778 19.4871L16.9726 19.483L16.5978 19.9515ZM16.5978 19.9515L16.2178 20.4159L16.223 20.42L16.5978 19.9515ZM7.40198 19.9519L7.02203 19.4876L7.01253 19.4953L7.00336 19.5035L7.40198 19.9519ZM7.40198 19.9519L7.7819 20.4163L7.79141 20.4085L7.80058 20.4004L7.40198 19.9519ZM3.36145 10.1969V9.5969H3.33152L3.30175 9.59988L3.36145 10.1969ZM3.36145 10.1969L3.36146 10.7969H3.39138L3.42116 10.7939L3.36145 10.1969ZM14.7331 3.6348C14.7122 3.42589 14.6939 3.24001 14.6681 3.0861C14.6412 2.92628 14.6006 2.7618 14.5169 2.59964L13.4504 3.1497C13.4541 3.15686 13.4679 3.18545 13.4846 3.2848C13.5023 3.39006 13.5165 3.52943 13.539 3.7542L14.7331 3.6348ZM14.908 4.78707C14.9116 4.79179 14.8782 4.75024 14.8404 4.53985C14.8036 4.3352 14.7751 4.0553 14.7331 3.6348L13.539 3.7542C13.5791 4.15456 13.6122 4.4903 13.6593 4.75238C13.7055 5.00873 13.7785 5.28499 13.9539 5.5149L14.908 4.78707ZM15.2794 4.94089C15.1369 4.96005 14.9952 4.90133 14.908 4.78707L13.9539 5.5149C14.3026 5.97195 14.8696 6.20682 15.4393 6.13018L15.2794 4.94089ZM16.2178 4.24981C15.8908 4.51742 15.6727 4.69523 15.502 4.8139C15.3264 4.93589 15.2735 4.94168 15.2794 4.94089L15.4393 6.13018C15.7259 6.09163 15.9729 5.94794 16.1868 5.7993C16.4055 5.64733 16.6663 5.43335 16.9777 5.17856L16.2178 4.24981ZM17.1026 3.6707C16.9288 3.72622 16.7838 3.81377 16.6518 3.9078C16.5247 3.99836 16.3803 4.11686 16.2178 4.24981L16.9777 5.17856C17.1525 5.03553 17.2612 4.94705 17.3481 4.88512C17.4301 4.82667 17.4601 4.81624 17.4678 4.81378L17.1026 3.6707ZM18.2257 3.72671C17.8704 3.57278 17.4714 3.55288 17.1026 3.6707L17.4678 4.81378C17.56 4.78433 17.6598 4.7893 17.7486 4.82779L18.2257 3.72671ZM19.0485 4.39099C18.9 4.24254 18.7682 4.11026 18.6507 4.0075C18.5287 3.90081 18.3931 3.79926 18.2257 3.72671L17.7486 4.82779C17.756 4.83099 17.7848 4.84436 17.8606 4.91069C17.9409 4.98095 18.0402 5.0798 18.1999 5.23952L19.0485 4.39099ZM19.9419 5.28446L19.0485 4.39099L18.1999 5.23952L19.0934 6.13299L19.9419 5.28446ZM20.6062 6.10726C20.5337 5.93984 20.4321 5.8042 20.3254 5.68224C20.2227 5.56477 20.0904 5.43292 19.9419 5.28446L19.0934 6.13299C19.2531 6.29272 19.352 6.392 19.4222 6.47233C19.4886 6.54816 19.5019 6.57697 19.5051 6.58436L20.6062 6.10726ZM20.6622 7.23029C20.78 6.86151 20.7601 6.4625 20.6062 6.10726L19.5051 6.58436C19.5436 6.67317 19.5486 6.77292 19.5191 6.86512L20.6622 7.23029ZM20.0831 8.1151C20.216 7.95261 20.3346 7.80825 20.4251 7.68114C20.5192 7.54916 20.6067 7.40409 20.6622 7.23029L19.5191 6.86512C19.5167 6.87279 19.5063 6.90279 19.4478 6.98484C19.3859 7.07176 19.2974 7.18039 19.1544 7.35522L20.0831 8.1151ZM19.392 9.0536C19.3912 9.05948 19.397 9.00651 19.519 8.83097C19.6377 8.66022 19.8155 8.44218 20.0831 8.1151L19.1544 7.35522C18.8996 7.66663 18.6856 7.92747 18.5336 8.14614C18.385 8.36003 18.2413 8.60704 18.2027 8.89363L19.392 9.0536ZM19.5458 9.42495C19.4316 9.33779 19.3728 9.19603 19.392 9.0536L18.2027 8.89363C18.1261 9.46333 18.361 10.0304 18.818 10.379L19.5458 9.42495ZM20.6981 9.59989C20.2776 9.55784 19.9977 9.5294 19.793 9.49257C19.5827 9.45471 19.5411 9.42135 19.5458 9.42495L18.818 10.379C19.0479 10.5544 19.3242 10.6275 19.5805 10.6736C19.8426 10.7208 20.1784 10.7539 20.5787 10.7939L20.6981 9.59989ZM21.7333 9.81606C21.5712 9.73242 21.4067 9.69174 21.2469 9.6649C21.0929 9.63906 20.9071 9.62078 20.6981 9.59989L20.5787 10.7939C20.8035 10.8164 20.9429 10.8307 21.0482 10.8483C21.1475 10.865 21.1761 10.8789 21.1833 10.8826L21.7333 9.81606ZM22.4878 10.6497C22.3455 10.2897 22.0774 9.99352 21.7333 9.81606L21.1833 10.8826C21.2693 10.9269 21.3363 11.001 21.3719 11.091L22.4878 10.6497ZM22.5999 11.7013C22.5999 11.4914 22.6002 11.3046 22.5898 11.1488C22.579 10.9872 22.5549 10.8194 22.4878 10.6497L21.3719 11.091C21.3748 11.0985 21.3858 11.1283 21.3925 11.2288C21.3996 11.3353 21.3999 11.4754 21.3999 11.7013H22.5999ZM22.5999 12.9649V11.7013H21.3999V12.9649H22.5999ZM22.4879 14.0162C22.5549 13.8466 22.579 13.6789 22.5898 13.5173C22.6002 13.3616 22.5999 13.1748 22.5999 12.9649H21.3999C21.3999 13.1908 21.3996 13.3309 21.3925 13.4373C21.3858 13.5378 21.3749 13.5676 21.3719 13.5751L22.4879 14.0162ZM21.7332 14.8501C22.0774 14.6727 22.3455 14.3764 22.4879 14.0162L21.3719 13.5751C21.3363 13.6652 21.2693 13.7392 21.1832 13.7836L21.7332 14.8501ZM20.6982 15.0662C20.9071 15.0453 21.0929 15.0271 21.2468 15.0012C21.4066 14.9744 21.5711 14.9338 21.7332 14.8501L21.1832 13.7836C21.1761 13.7873 21.1475 13.8011 21.0481 13.8178C20.9429 13.8355 20.8036 13.8497 20.5788 13.8722L20.6982 15.0662ZM19.5463 15.2411C19.5415 15.2447 19.5831 15.2113 19.7934 15.1735C19.998 15.1367 20.2778 15.1083 20.6982 15.0662L20.5788 13.8722C20.1786 13.9122 19.8429 13.9453 19.5809 13.9925C19.3247 14.0386 19.0485 14.1116 18.8186 14.2869L19.5463 15.2411ZM19.3924 15.6126C19.3732 15.4701 19.4319 15.3283 19.5463 15.2411L18.8186 14.2869C18.3613 14.6356 18.1264 15.2029 18.2031 15.7728L19.3924 15.6126ZM20.0833 16.5507C19.8157 16.2238 19.638 16.0058 19.5194 15.8351C19.3974 15.6596 19.3916 15.6067 19.3924 15.6126L18.2031 15.7728C18.2417 16.0593 18.3854 16.3062 18.534 16.52C18.6859 16.7386 18.8998 16.9993 19.1545 17.3106L20.0833 16.5507ZM20.6622 17.4352C20.6067 17.2615 20.5192 17.1164 20.4252 16.9845C20.3346 16.8575 20.2162 16.7131 20.0833 16.5507L19.1545 17.3106C19.2975 17.4854 19.3859 17.594 19.4478 17.6808C19.5063 17.7629 19.5167 17.7928 19.5192 17.8005L20.6622 17.4352ZM20.6062 18.5586C20.7602 18.2033 20.7801 17.8041 20.6622 17.4352L19.5192 17.8005C19.5486 17.8927 19.5437 17.9925 19.5052 18.0814L20.6062 18.5586ZM19.9421 19.3811C20.0905 19.2327 20.2227 19.1009 20.3255 18.9835C20.4321 18.8616 20.5336 18.726 20.6062 18.5586L19.5052 18.0814C19.502 18.0888 19.4886 18.1176 19.4223 18.1934C19.352 18.2737 19.2532 18.3729 19.0936 18.5326L19.9421 19.3811ZM19.0485 20.2747L19.9421 19.3811L19.0936 18.5326L18.2 19.4262L19.0485 20.2747ZM18.2257 20.939C18.3931 20.8664 18.5288 20.7649 18.6507 20.6582C18.7682 20.5554 18.9 20.4231 19.0485 20.2747L18.2 19.4262C18.0402 19.5859 17.941 19.6847 17.8606 19.755C17.7848 19.8213 17.756 19.8347 17.7486 19.8379L18.2257 20.939ZM17.1027 20.995C17.4715 21.1128 17.8705 21.0929 18.2257 20.939L17.7486 19.8379C17.6598 19.8764 17.56 19.8814 17.4678 19.8519L17.1027 20.995ZM16.2178 20.4159C16.3803 20.5488 16.5247 20.6673 16.6518 20.7579C16.7838 20.8519 16.9289 20.9395 17.1027 20.995L17.4678 19.8519C17.4602 19.8494 17.4302 19.839 17.3481 19.7806C17.2612 19.7186 17.1526 19.6302 16.9778 19.4871L16.2178 20.4159ZM15.2794 19.7248C15.2735 19.724 15.3265 19.7298 15.502 19.8518C15.6728 19.9704 15.8907 20.1483 16.2178 20.4159L16.9778 19.4871C16.6664 19.2323 16.4055 19.0184 16.1869 18.8664C15.973 18.7177 15.726 18.5741 15.4394 18.5355L15.2794 19.7248ZM14.908 19.8786C14.9952 19.7643 15.137 19.7056 15.2794 19.7248L15.4394 18.5355C14.8697 18.4589 14.3026 18.6937 13.954 19.1508L14.908 19.8786ZM14.7331 21.0311C14.7751 20.6105 14.8036 20.3306 14.8404 20.1259C14.8783 19.9154 14.9117 19.8739 14.908 19.8786L13.954 19.1508C13.7786 19.3807 13.7055 19.657 13.6594 19.9134C13.6122 20.1755 13.5791 20.5113 13.539 20.9117L14.7331 21.0311ZM14.5168 22.0667C14.6005 21.9045 14.6412 21.7399 14.6681 21.58C14.6939 21.4261 14.7122 21.2401 14.7331 21.0311L13.539 20.9117C13.5166 21.1366 13.5023 21.276 13.4846 21.3813C13.4679 21.4807 13.4541 21.5093 13.4504 21.5165L14.5168 22.0667ZM13.6834 22.8209C14.0433 22.6786 14.3394 22.4106 14.5168 22.0667L13.4504 21.5165C13.406 21.6025 13.332 21.6694 13.242 21.705L13.6834 22.8209ZM12.6315 22.9331C12.8415 22.9331 13.0284 22.9334 13.1841 22.923C13.3459 22.9122 13.5137 22.8881 13.6834 22.8209L13.242 21.705C13.2345 21.708 13.2047 21.7189 13.1042 21.7256C12.9976 21.7328 12.8575 21.7331 12.6315 21.7331V22.9331ZM11.3681 22.9331H12.6315V21.7331H11.3681V22.9331ZM10.3166 22.821C10.4863 22.8881 10.654 22.9122 10.8157 22.923C10.9714 22.9334 11.1582 22.9331 11.3681 22.9331V21.7331C11.1422 21.7331 11.0021 21.7328 10.8956 21.7256C10.7951 21.7189 10.7653 21.708 10.7578 21.705L10.3166 22.821ZM9.48289 22.0665C9.66036 22.4106 9.95656 22.6786 10.3166 22.821L10.7578 21.705C10.6678 21.6695 10.5938 21.6024 10.5494 21.5164L9.48289 22.0665ZM9.26673 21.0313C9.28762 21.2402 9.3059 21.4261 9.33174 21.58C9.35858 21.7399 9.39925 21.9043 9.48289 22.0665L10.5494 21.5164C10.5457 21.5093 10.5319 21.4807 10.5152 21.3813C10.4975 21.2761 10.4833 21.1367 10.4608 20.9119L9.26673 21.0313ZM9.09179 19.879C9.08819 19.8743 9.12155 19.9158 9.15941 20.1262C9.19624 20.3309 9.22468 20.6108 9.26673 21.0313L10.4608 20.9119C10.4207 20.5115 10.3876 20.1758 10.3404 19.9137C10.2943 19.6573 10.2212 19.3811 10.0458 19.1511L9.09179 19.879ZM8.72045 19.7252C8.86287 19.706 9.00462 19.7647 9.09179 19.879L10.0458 19.1511C9.6972 18.6941 9.13018 18.4593 8.56049 18.5359L8.72045 19.7252ZM7.7819 20.4163C8.10899 20.1487 8.32705 19.9709 8.49781 19.8522C8.67335 19.7302 8.72633 19.7244 8.72045 19.7252L8.56049 18.5359C8.27389 18.5744 8.02688 18.7181 7.81298 18.8668C7.5943 19.0188 7.33346 19.2327 7.02203 19.4876L7.7819 20.4163ZM6.89706 20.9955C7.07087 20.9399 7.21595 20.8524 7.34793 20.7583C7.47504 20.6678 7.61941 20.5493 7.7819 20.4163L7.02203 19.4876C6.8472 19.6306 6.73856 19.7191 6.65163 19.781C6.56958 19.8395 6.53958 19.8499 6.53191 19.8524L6.89706 20.9955ZM5.77408 20.9394C6.12931 21.0934 6.52828 21.1133 6.89706 20.9955L6.53191 19.8524C6.43971 19.8818 6.33997 19.8768 6.25116 19.8384L5.77408 20.9394ZM4.95124 20.2751C5.09971 20.4236 5.23156 20.5559 5.34903 20.6586C5.47101 20.7653 5.60665 20.8669 5.77408 20.9394L6.25116 19.8384C6.24377 19.8352 6.21496 19.8218 6.13913 19.7555C6.0588 19.6852 5.95951 19.5863 5.79977 19.4266L4.95124 20.2751ZM4.0578 19.3817L4.95124 20.2751L5.79977 19.4266L4.90633 18.5332L4.0578 19.3817ZM3.3935 18.5589C3.46604 18.7263 3.56759 18.8619 3.67429 18.9839C3.77705 19.1014 3.90934 19.2332 4.0578 19.3817L4.90633 18.5332C4.7466 18.3734 4.64775 18.2741 4.57748 18.1938C4.51115 18.118 4.49778 18.0892 4.49458 18.0818L3.3935 18.5589ZM3.33749 17.4359C3.21968 17.8046 3.23958 18.2036 3.3935 18.5589L4.49458 18.0818C4.4561 17.993 4.45113 17.8932 4.48058 17.801L3.33749 17.4359ZM3.91663 16.551C3.78368 16.7135 3.66516 16.8579 3.5746 16.985C3.48057 17.117 3.39301 17.2621 3.33749 17.4359L4.48058 17.801C4.48303 17.7934 4.49346 17.7634 4.55192 17.6813C4.61385 17.5944 4.70233 17.4857 4.84538 17.3109L3.91663 16.551ZM4.60773 15.6125C4.60852 15.6066 4.60273 15.6596 4.48073 15.8352C4.36206 16.0059 4.18424 16.2239 3.91663 16.551L4.84538 17.3109C5.10017 16.9995 5.31416 16.7387 5.46613 16.52C5.61478 16.3061 5.75846 16.0591 5.79702 15.7725L4.60773 15.6125ZM4.45391 15.2412C4.56817 15.3283 4.62689 15.4701 4.60773 15.6125L5.79702 15.7725C5.87365 15.2028 5.63878 14.6358 5.18174 14.2871L4.45391 15.2412ZM3.30163 15.0662C3.72213 15.1083 4.00204 15.1367 4.20669 15.1735C4.41707 15.2114 4.45862 15.2448 4.45391 15.2412L5.18174 14.2871C4.95183 14.1117 4.67557 14.0386 4.41922 13.9925C4.15714 13.9454 3.8214 13.9122 3.42103 13.8722L3.30163 15.0662ZM2.26648 14.8501C2.42864 14.9337 2.59312 14.9744 2.75294 15.0012C2.90685 15.0271 3.09272 15.0453 3.30163 15.0662L3.42103 13.8722C3.19627 13.8497 3.0569 13.8355 2.95164 13.8178C2.85229 13.8011 2.8237 13.7873 2.81654 13.7836L2.26648 14.8501ZM1.51198 14.0164C1.65432 14.3764 1.92239 14.6726 2.26648 14.8501L2.81654 13.7836C2.73052 13.7392 2.66351 13.6652 2.62792 13.5752L1.51198 14.0164ZM1.3999 12.9648C1.3999 13.1748 1.39959 13.3616 1.40999 13.5173C1.42079 13.679 1.44489 13.8467 1.51198 14.0164L2.62792 13.5752C2.62496 13.5677 2.61404 13.5378 2.60732 13.4373C2.60021 13.3308 2.5999 13.1907 2.5999 12.9648H1.3999ZM1.3999 11.7014V12.9648H2.5999V11.7014H1.3999ZM1.51203 10.6496C1.44491 10.8193 1.4208 10.9871 1.40999 11.1488C1.39959 11.3046 1.3999 11.4914 1.3999 11.7014H2.5999C2.5999 11.4755 2.60021 11.3353 2.60733 11.2288C2.61404 11.1283 2.62497 11.0984 2.62793 11.0909L1.51203 10.6496ZM2.26634 9.81611C1.92237 9.99356 1.65438 10.2897 1.51203 10.6496L2.62793 11.0909C2.66352 11.001 2.73052 10.9269 2.81651 10.8826L2.26634 9.81611ZM3.30175 9.59988C3.09279 9.62078 2.90686 9.63906 2.75291 9.66491C2.59306 9.69175 2.42853 9.73244 2.26634 9.81611L2.81651 10.8826C2.82367 10.8789 2.85227 10.865 2.95164 10.8483C3.05692 10.8307 3.19634 10.8164 3.42116 10.7939L3.30175 9.59988ZM4.45433 9.42488C4.45905 9.42129 4.41749 9.45466 4.20706 9.49253C4.00235 9.52938 3.72236 9.55782 3.30175 9.59988L3.42116 10.7939C3.82163 10.7539 4.15746 10.7207 4.41961 10.6736C4.67603 10.6274 4.95236 10.5543 5.1823 10.3789L4.45433 9.42488ZM4.60811 9.05362C4.62724 9.19601 4.56854 9.33773 4.45433 9.42488L5.1823 10.3789C5.63916 10.0302 5.87395 9.46338 5.79742 8.89382L4.60811 9.05362ZM3.9168 8.11482C4.1845 8.44201 4.36238 8.66011 4.48108 8.83092C4.60312 9.00652 4.6089 9.05951 4.60811 9.05362L5.79742 8.89382C5.7589 8.60714 5.61518 8.36006 5.46649 8.14611C5.31448 7.92737 5.10043 7.66645 4.84555 7.35493L3.9168 8.11482ZM3.33747 7.22961C3.39299 7.4035 3.48057 7.54863 3.57463 7.68067C3.66523 7.80783 3.78379 7.95225 3.9168 8.11482L4.84555 7.35493C4.70245 7.18003 4.61393 7.07135 4.55197 6.98439C4.49349 6.9023 4.48306 6.87228 4.48061 6.86461L3.33747 7.22961ZM3.39346 6.10702C3.23965 6.46213 3.21975 6.86096 3.33747 7.22961L4.48061 6.86461C4.45118 6.77245 4.45615 6.67274 4.4946 6.58396L3.39346 6.10702ZM4.05797 5.28388C3.90946 5.4324 3.77711 5.5643 3.67432 5.68181C3.56759 5.80383 3.466 5.93953 3.39346 6.10702L4.4946 6.58396C4.49781 6.57657 4.51117 6.54774 4.57753 6.47189C4.64782 6.39153 4.74671 6.2922 4.9065 6.13241L4.05797 5.28388ZM4.95129 4.39056L4.05797 5.28388L4.9065 6.13241L5.79982 5.23909L4.95129 4.39056ZM5.77413 3.72624C5.6067 3.79879 5.47105 3.90034 5.34908 4.00704C5.23161 4.1098 5.09975 4.2421 4.95129 4.39056L5.79982 5.23909C5.95955 5.07936 6.05884 4.9805 6.13918 4.91023C6.215 4.8439 6.24382 4.83053 6.25121 4.82733L5.77413 3.72624ZM6.8971 3.67023C6.52833 3.55243 6.12935 3.57233 5.77413 3.72624L6.25121 4.82733C6.34001 4.78885 6.43976 4.78388 6.53195 4.81333L6.8971 3.67023ZM7.78204 4.24945C7.61951 4.11647 7.47513 3.99794 7.34801 3.90737C7.21601 3.81333 7.07093 3.72576 6.8971 3.67023L6.53195 4.81333C6.53962 4.81578 6.56962 4.82621 6.65169 4.88468C6.73864 4.94663 6.84729 5.03513 7.02215 5.1782L7.78204 4.24945ZM8.72042 4.94049C8.72631 4.94129 8.67335 4.93549 8.49782 4.81349C8.32709 4.69483 8.10908 4.51702 7.78204 4.24945L7.02215 5.1782C7.33353 5.43296 7.59433 5.64691 7.81296 5.79887C8.0268 5.94749 8.27375 6.09117 8.56026 6.12976L8.72042 4.94049ZM9.09187 4.78663C9.0047 4.90094 8.86289 4.95968 8.72042 4.94049L8.56026 6.12976C9.13014 6.2065 9.69737 5.97155 10.0461 5.51432L9.09187 4.78663ZM9.26675 3.63466C9.22471 4.05505 9.19628 4.33488 9.15947 4.53947C9.12162 4.7498 9.08828 4.79135 9.09187 4.78663L10.0461 5.51432C10.2214 5.28445 10.2944 5.00826 10.3405 4.75198C10.3876 4.48997 10.4208 4.15432 10.4608 3.75407L9.26675 3.63466ZM9.48281 2.59978C9.39921 2.7619 9.35856 2.92635 9.33174 3.08612C9.3059 3.23999 9.28763 3.42582 9.26675 3.63466L10.4608 3.75407C10.4833 3.52936 10.4975 3.39003 10.5152 3.28481C10.5318 3.18548 10.5457 3.1569 10.5494 3.14974L9.48281 2.59978ZM10.3168 1.84507C9.9566 1.98743 9.66029 2.25558 9.48281 2.59978L10.5494 3.14974C10.5937 3.06369 10.6678 2.99665 10.7579 2.96106L10.3168 1.84507ZM11.368 1.73306C11.1581 1.73306 10.9714 1.73275 10.8157 1.74314C10.6541 1.75394 10.4864 1.77802 10.3168 1.84507L10.7579 2.96106C10.7653 2.9581 10.7952 2.94719 10.8957 2.94048C11.0021 2.93337 11.1422 2.93306 11.368 2.93306V1.73306ZM12.6317 1.73306H11.368V2.93306H12.6317V1.73306ZM13.6832 1.84514C13.5135 1.77805 13.3458 1.75395 13.1841 1.74315C13.0284 1.73275 12.8416 1.73306 12.6317 1.73306V2.93306C12.8576 2.93306 12.9977 2.93337 13.1042 2.94048C13.2047 2.94719 13.2345 2.95812 13.242 2.96108L13.6832 1.84514ZM14.5169 2.59964C14.3394 2.25555 14.0432 1.98748 13.6832 1.84514L13.242 2.96108C13.332 2.99667 13.406 3.06368 13.4504 3.1497L14.5169 2.59964ZM15.3999 12.3331C15.3999 14.2108 13.8777 15.7331 11.9999 15.7331V16.9331C14.5404 16.9331 16.5999 14.8736 16.5999 12.3331H15.3999ZM11.9999 8.93306C13.8777 8.93306 15.3999 10.4553 15.3999 12.3331H16.5999C16.5999 9.79255 14.5404 7.73306 11.9999 7.73306V8.93306ZM8.5999 12.3331C8.5999 10.4553 10.1221 8.93306 11.9999 8.93306V7.73306C9.45939 7.73306 7.3999 9.79255 7.3999 12.3331H8.5999ZM11.9999 15.7331C10.1221 15.7331 8.5999 14.2108 8.5999 12.3331H7.3999C7.3999 14.8736 9.45939 16.9331 11.9999 16.9331V15.7331Z" fill="white" fill-opacity="0.25"/>
</svg>
